<?xml version="1.0" standalone="no"?>
<!DOCTYPE svg PUBLIC "-//W3C//DTD SVG 1.1//EN" "http://www.w3.org/Graphics/SVG/1.1/DTD/svg11.dtd" >
<svg xmlns="http://www.w3.org/2000/svg">
<metadata>
This is a custom SVG webfont generated by Font Squirrel.
Copyright   : 2005 Erik Spiekermann published by FSI Fonts und Software GmbH
Designer    : Erik Spiekermann
Foundry     : FSI Fonts und Software GmbH
Foundry URL : httpwwwfontfontcom
</metadata>
<defs>
<font id="webfontkmslv2Tp" horiz-adv-x="1204" >
<font-face units-per-em="2048" ascent="1544" descent="-504" />
<missing-glyph horiz-adv-x="460" />
<glyph unicode=" "  horiz-adv-x="460" />
<glyph unicode="&#x09;" horiz-adv-x="460" />
<glyph unicode="&#xa0;" horiz-adv-x="460" />
<glyph unicode="!" horiz-adv-x="641" d="M662 1454l-271 -1001h-209l142 954zM395 143.5q0 -69.5 -50 -120t-122 -50.5q-70 0 -118 49.5t-48 120.5q0 70 49.5 120t120.5 50q70 0 119 -50t49 -119.5z" />
<glyph unicode="&#x22;" horiz-adv-x="851" d="M905 1450l-121 -578h-258l121 578h258zM430 1450l-121 -578h-258l121 578h258z" />
<glyph unicode="#" horiz-adv-x="1089" d="M1145 854h-211l-74 -258h162v-184h-211l-117 -412h-198l116 412h-202l-117 -412h-199l117 412h-160v184h209l74 258h-160v184h209l115 412h198l-114 -412h202l115 412h199l-115 -412h162v-184zM735 854h-203l-73 -258h203z" />
<glyph unicode="$" horiz-adv-x="1214" d="M1278 1323l-174 -199q-147 102 -313 103q-96 0 -167 -56.5t-71 -136.5q0 -43 29.5 -69.5t101.5 -51.5l164 -55q281 -94 280 -326q0 -221 -165.5 -378.5t-446.5 -180.5l-35 -166h-176l35 166q-213 23 -371 125l152 219q188 -111 368 -110q135 0 216 64.5t81 170.5 q0 53 -36.5 88t-114.5 62l-150 51q-133 45 -196.5 109.5t-63.5 187.5q0 203 148.5 349.5t374.5 172.5l32 148h176l-30 -150q219 -22 352 -137z" />
<glyph unicode="%" horiz-adv-x="1699" d="M887 1178q0 -182 -117 -312.5t-321 -130.5q-131 0 -206 66.5t-75 183.5q0 207 122 333t310 126q133 0 210 -71.5t77 -194.5zM1626 424q0 -182 -116.5 -312t-321.5 -130q-131 0 -206 66.5t-75 182.5q0 207 122 333t310 126q133 0 210 -71.5t77 -194.5zM1532 1423 l-1049 -1423h-219l1049 1423h219zM1403 440q0 53 -21.5 76t-68.5 23q-90 0 -137.5 -89.5t-47.5 -230.5q0 -84 99 -84q82 0 129 89t47 216zM664 1194q0 53 -21.5 75.5t-69.5 22.5q-90 0 -137 -89t-47 -230q0 -84 98 -84q82 0 129.5 89t47.5 216z" />
<glyph unicode="&#x26;" horiz-adv-x="1456" d="M1354 0h-363l-69 90q-172 -119 -420 -119q-207 0 -325 92.5t-118 235.5q0 131 88.5 239.5t255.5 178.5q-106 98 -106 235q0 172 140.5 292t346.5 120q158 0 251 -70.5t93 -183.5q0 -129 -66.5 -220t-248.5 -175l-27 -13l189 -227q25 39 45 110.5t24 110.5h230 q-43 -246 -156 -401zM786 246l-266 319q-160 -86 -160 -243q0 -72 50.5 -111t142.5 -39q147 0 233 74zM848 1073q0 45 -28.5 73t-74.5 28q-68 0 -116.5 -49.5t-48.5 -119t82 -163.5q86 35 136 98t50 133z" />
<glyph unicode="'" horiz-adv-x="542" d="M594 1450l-121 -578h-258l121 578h258z" />
<glyph unicode="(" horiz-adv-x="706" d="M963 1432q-147 -92 -214 -158t-126 -174q-84 -154 -144 -436q-63 -299 -63 -457q0 -152 41 -242t153 -160l-98 -151q-174 63 -270.5 210.5t-96.5 366.5q0 174 54 428q100 483 381 732q154 135 342 208z" />
<glyph unicode=")" horiz-adv-x="706" d="M618 1024q0 -176 -51 -424q-102 -487 -381 -735q-150 -135 -344 -209l-35 174q147 92 213 154.5t125 171.5q80 145 146 440q57 256 57 455q0 145 -39 238t-147 161l96 152q360 -138 360 -578z" />
<glyph unicode="*" horiz-adv-x="966" d="M1059 1061l-268 -86l170 -234l-170 -125l-173 236l-165 -225l-166 125l172 223l-273 94l66 195l268 -97v283h209v-283l268 88z" />
<glyph unicode="+" horiz-adv-x="1288" d="M1239 750l-55 -258h-422l-92 -433h-281l92 433h-418l56 258h418l92 432h280l-92 -432h422z" />
<glyph unicode="," horiz-adv-x="591" d="M393 98q0 -137 -115.5 -250.5t-254.5 -148.5l-78 117q168 61 168 118q0 39 -29 56q-70 41 -70 147q0 78 53.5 130t129.5 52q90 0 143 -57.5t53 -163.5z" />
<glyph unicode="-" horiz-adv-x="735" d="M653 674l-51 -225h-491l51 225h491z" />
<glyph unicode="." horiz-adv-x="589" d="M397 150q0 -76 -53 -129.5t-127 -53.5q-76 0 -128 53.5t-52 129.5q0 74 52 126t126 52q76 0 129 -52t53 -126z" />
<glyph unicode="/" horiz-adv-x="849" d="M1030 1565l-948 -1880h-197l949 1880h196z" />
<glyph unicode="0" horiz-adv-x="1191" d="M1104 662q0 -119 -42 -239t-119 -220.5t-197.5 -164t-264.5 -63.5q-186 0 -285.5 104.5t-99.5 305.5q0 162 70 315.5t216 261t335 107.5q387 1 387 -407zM807 709q0 160 -133 159q-74 0 -131.5 -56t-89 -141t-47 -170t-15.5 -157q0 -94 35 -131t98 -37q74 0 131.5 57.5 t89 144.5t47 173t15.5 158z" />
<glyph unicode="1" horiz-adv-x="946" d="M805 1069l-180 -846h176l-47 -223h-662l47 223h221l113 531q-160 -88 -270 -123l-39 160l457 278h184z" />
<glyph unicode="2" horiz-adv-x="1140" d="M1051 811q0 -233 -252 -397q-102 -66 -277 -150l-94 -45q76 10 227 10h322l-109 -229h-854l54 250q143 66 233 112q256 129 344 212t88 161q0 49 -39 77t-100 28q-111 0 -305 -138l-129 177q272 203 559 202q154 0 243 -75.5t89 -194.5z" />
<glyph unicode="3" horiz-adv-x="1110" d="M1030 784q0 -123 -69.5 -221t-208.5 -149q84 -16 135 -86t51 -158q0 -231 -237.5 -389t-594.5 -158q-92 0 -167 10l-27 201q70 -14 151 -14q244 0 398.5 101.5t154.5 254.5q0 70 -55 99.5t-190 29.5q-76 0 -107 -2l49 229q66 -8 140 -8q127 0 198.5 56.5t71.5 150.5 q0 51 -37 81t-108 30q-164 0 -332 -117l-107 174q262 172 520 172q168 0 269.5 -80t101.5 -207z" />
<glyph unicode="4" horiz-adv-x="1134" d="M1012 236l-51 -236h-93l-61 4q4 -27 -6 -74l-62 -288l-266 -33l74 346l14 51q-27 -6 -67 -6h-543l41 186l581 875h283l-436 -664q-82 -127 -127 -166q20 4 43 5h231l49 -3q2 20 7 37q10 59 59 219l74 240l225 49l-76 -362q-18 -82 -28 -121l-17 -62q41 2 66 3h86z" />
<glyph unicode="5" horiz-adv-x="1013" d="M963 1049l-91 -234h-401l-90 -285q57 10 98 11q166 0 260.5 -88t94.5 -232q0 -246 -213 -422t-551 -176q-80 0 -154 15l-16 208q102 -29 186 -28q193 0 316.5 105.5t123.5 246.5q0 70 -59 113t-145 43q-147 0 -283 -35l225 758h699z" />
<glyph unicode="6" horiz-adv-x="1165" d="M1124 1268q-131 -39 -231 -86t-214 -145.5t-187 -233.5q98 68 233 67q160 0 258 -94t98 -241q0 -233 -172 -398.5t-415 -165.5q-199 0 -303.5 111t-104.5 315q0 217 112.5 418t315.5 361q109 86 284 173t310 124zM791 498q0 72 -40 111.5t-110 39.5q-94 0 -227 -67 q-43 -106 -43 -222q0 -84 42 -131t117 -47q104 0 182.5 96.5t78.5 219.5z" />
<glyph unicode="7" horiz-adv-x="976" d="M1061 1049l-72 -240q-182 -201 -397 -546t-289 -597l-326 -78q131 332 331 663t409 558q-33 -8 -84 -8h-516l96 248h848z" />
<glyph unicode="8" horiz-adv-x="1214" d="M1200 1096q0 -115 -93 -224.5t-230 -144.5q94 -35 165.5 -111.5t71.5 -173.5q0 -213 -169 -348t-482 -135q-193 0 -298.5 87t-105.5 230q0 137 91.5 255t232.5 171q-61 27 -102 91.5t-41 140.5q0 197 162.5 324.5t404.5 127.5q180 0 286.5 -80.5t106.5 -209.5zM801 387 q0 68 -59.5 112t-190.5 91q-188 -96 -189 -268q0 -76 49.5 -118t141.5 -42q106 0 177 66.5t71 158.5zM901 1075q0 111 -158 111q-94 0 -157.5 -54.5t-63.5 -132.5q0 -47 39 -80.5t127 -78.5q213 96 213 235z" />
<glyph unicode="9" horiz-adv-x="1095" d="M1018 698q0 -240 -125 -467t-365 -397q-238 -168 -501 -254l-111 172q176 43 366.5 174t264.5 260q-92 -39 -174 -39q-160 0 -252 98.5t-92 256.5q0 244 176 412.5t422 168.5q391 0 391 -385zM729 694q0 86 -39 132t-112 46q-104 0 -180 -102t-76 -242q0 -74 44 -116.5 t117 -42.5q90 0 181 75q65 131 65 250z" />
<glyph unicode=":" horiz-adv-x="618" d="M543 753.5q0 -73.5 -52.5 -124.5t-126 -51t-126 51t-52.5 124.5t52.5 126t126 52.5t126 -52.5t52.5 -126zM412 143.5q0 -73.5 -52.5 -125t-126 -51.5t-126 51.5t-52.5 125t52.5 126t126 52.5t126 -52.5t52.5 -126z" />
<glyph unicode=";" horiz-adv-x="665" d="M434 98q0 -137 -115.5 -250.5t-255.5 -148.5l-77 117q168 61 168 118q0 39 -29 56q-70 41 -70 147q0 78 53.5 130t129.5 52q90 0 143 -57.5t53 -163.5zM557 753.5q0 -73.5 -52 -124.5t-126 -51t-126 51t-52 124.5t52 126t126 52.5t126 -52.5t52 -126z" />
<glyph unicode="&#x3c;" horiz-adv-x="776" d="M848 1055l-451 -457l244 -446l-244 -177l-358 637l629 637z" />
<glyph unicode="=" horiz-adv-x="1384" d="M1391 961l-56 -259h-1122l55 259h1123zM1298 539l-53 -258h-1122l53 258h1122z" />
<glyph unicode="&#x3e;" horiz-adv-x="776" d="M797 612l-631 -637l-178 195l450 457l-243 446l243 176z" />
<glyph unicode="?" horiz-adv-x="929" d="M999 1153q0 -229 -260 -377q-211 -119 -233 -344h-236q-16 287 273 467q45 27 63.5 39t51 40t47 58.5t14.5 65.5q0 109 -139 108q-106 0 -246 -104l-86 182q180 156 424 156q145 0 236 -82t91 -209zM526 143.5q0 -69.5 -50 -120t-122 -50.5q-70 0 -118 49.5t-48 120.5 q0 70 49.5 120t120.5 50q70 0 119 -50t49 -119.5z" />
<glyph unicode="@" horiz-adv-x="1855" d="M1761 565q0 -264 -136 -434t-329 -170q-74 0 -122 15.5t-70.5 45t-30.5 57t-12 71.5q-137 -164 -307 -164q-127 0 -198 78.5t-71 228.5q0 268 158 456.5t424 188.5q133 0 291 -84q-41 -137 -129 -551q-16 -78 -17 -113q0 -41 20.5 -56t70.5 -15q94 0 155.5 125t61.5 321 q0 246 -147.5 393.5t-403.5 147.5q-246 0 -435.5 -215t-189.5 -500q0 -272 160 -421.5t407 -149.5q160 0 295 45l37 -174q-176 -57 -332 -58q-360 0 -585.5 200t-225.5 558q0 238 114 444.5t314.5 330.5t440.5 124q346 0 569 -200.5t223 -524.5zM1122 762q-31 14 -73 14 q-168 0 -253 -148.5t-85 -342.5q0 -129 86 -129q70 0 147.5 70.5t102.5 185.5z" />
<glyph unicode="A" d="M1112 0h-297l-29 338h-417l-172 -338h-310l770 1427h310zM768 575l-20 297q-7 97 -7 194v48q-76 -172 -125 -274l-127 -265h279z" />
<glyph unicode="B" horiz-adv-x="1224" d="M1231 1116q0 -115 -76 -216t-223 -144q96 -20 154.5 -98t58.5 -179q0 -78 -33 -169t-100 -158q-80 -82 -180.5 -117t-264.5 -35h-516l303 1423h506q168 0 269.5 -78.5t101.5 -228.5zM829 485q0 74 -42 103.5t-140 29.5h-178l-82 -385h186q86 0 148 41q47 33 77.5 92.5 t30.5 118.5zM922 1055q0 68 -35 96.5t-123 28.5h-178l-68 -326h168q92 0 150 41q86 64 86 160z" />
<glyph unicode="C" horiz-adv-x="1128" d="M1255 1341l-165 -188q-82 74 -216 74q-72 0 -144.5 -35t-121.5 -92q-86 -96 -141 -294t-55 -339q0 -270 252 -270q119 0 262 98l98 -186q-188 -133 -428 -133.5t-372 130t-132 369.5q0 168 58.5 351.5t156.5 312.5q113 152 274.5 233.5t338.5 81.5q104 0 196 -31t139 -82 z" />
<glyph unicode="D" horiz-adv-x="1286" d="M1264 938q0 -188 -68 -390t-192 -335q-113 -119 -244 -166t-363 -47h-346l303 1423h328q190 0 300 -29.5t173 -109.5q109 -139 109 -346zM954 942q0 117 -48 186.5t-179 69.5h-129l-205 -965h142q172 0 266 148q82 129 117.5 297t35.5 264z" />
<glyph unicode="E" horiz-adv-x="1013" d="M1165 1423l-88 -233h-483l-70 -330h404l-49 -233h-402l-80 -381h537l-53 -246h-830l303 1423h811z" />
<glyph unicode="F" horiz-adv-x="897" d="M1126 1423l-82 -231h-448l-70 -326h359l-49 -233h-359l-135 -633h-291l303 1423h772z" />
<glyph unicode="G" horiz-adv-x="1361" d="M1358 1282l-184 -174q-109 106 -279 106q-131 0 -223 -75q-111 -88 -177.5 -303t-66.5 -373q0 -264 256 -264q96 0 168 34l70 324h-211v234h557l-148 -689q-223 -119 -497 -118q-244 0 -376 133t-132 358q0 238 94 454t237 335q123 102 236 142t258 40q264 0 418 -164z " />
<glyph unicode="H" horiz-adv-x="1296" d="M1339 1423l-303 -1423h-291l136 635h-410l-135 -635h-285l303 1423h285l-119 -553h410l119 553h290z" />
<glyph unicode="I" horiz-adv-x="608" d="M651 1423l-303 -1423h-297l303 1423h297z" />
<glyph unicode="J" horiz-adv-x="608" d="M651 1423l-243 -1147q-41 -195 -80 -278q-53 -119 -171 -208t-241 -132l-100 154q141 76 202 172q43 63 86 262l250 1177h297z" />
<glyph unicode="K" horiz-adv-x="1228" d="M1405 1423l-602 -669l344 -754h-365l-280 743l-158 -743h-293l303 1423h293l-139 -649l539 649h358z" />
<glyph unicode="L" horiz-adv-x="966" d="M905 238l-102 -238h-752l303 1423h293l-252 -1185h510z" />
<glyph unicode="M" horiz-adv-x="1693" d="M1657 1423l-176 -1423h-277l109 760q18 131 41 237q-51 -123 -101 -219l-391 -778h-244l-43 748q-5 102 -5 180q0 39 1 71q-23 -98 -65 -256l-207 -743h-289l436 1423h363l35 -712q3 -66 3 -122.5t-3 -103.5q49 127 100 232l344 706h369z" />
<glyph unicode="N" horiz-adv-x="1300" d="M1343 1423l-303 -1423h-295l-127 545q-92 397 -98 471q-18 -150 -71 -408l-121 -608h-277l303 1423h314l151 -569q57 -215 74 -410q27 248 59 398l119 581h272z" />
<glyph unicode="O" horiz-adv-x="1421" d="M1397 930q0 -276 -130 -530.5t-341 -354.5q-141 -68 -322 -68q-252 0 -369.5 136.5t-117.5 373.5q0 281 111.5 497t267.5 329q176 129 417 129q233 0 358.5 -135t125.5 -377zM1075 989q0 231 -213 232q-154 0 -248 -125q-80 -104 -134 -302t-54 -350q0 -133 55.5 -190 t165.5 -57q143 0 232 106q86 106 141 315t55 371z" />
<glyph unicode="P" horiz-adv-x="1169" d="M1241 1098q0 -373 -330 -525q-109 -49 -305 -49h-151l-111 -524h-293l303 1423h375q268 0 369 -65q143 -88 143 -260zM932 1042q0 150 -158 150h-176l-92 -434h143q152 0 209 69q74 88 74 215z" />
<glyph unicode="Q" horiz-adv-x="1423" d="M1399 930q0 -274 -126 -522t-331 -359q29 -10 105 -65q92 -63 178 -64l127 12l-95 -180q-49 -18 -124 -18q-131 0 -265 100q-145 106 -262 143q-250 0 -368.5 136.5t-118.5 373.5q0 281 109.5 496t265.5 328q178 131 421 131q233 0 358.5 -135t125.5 -377zM1077 989 q0 231 -213 232q-154 0 -248 -125q-80 -104 -134 -302t-54 -350q0 -133 55.5 -190t165.5 -57q143 0 232 106q86 106 141 315t55 371z" />
<glyph unicode="R" horiz-adv-x="1179" d="M1225 1112q0 -201 -119 -335t-291 -163q27 -18 62 -71q31 -53 84 -188.5l92 -243.5l37 -111h-338l-74 231q-59 186 -98 261t-78 94q-16 8 -35 8l-127 -594h-289l303 1423h531q160 0 250 -84t90 -227zM918 1055q0 139 -183 139h-141l-82 -385h88q162 0 225 49 q41 31 67 89.5t26 107.5z" />
<glyph unicode="S" horiz-adv-x="1253" d="M1298 1323l-172 -197q-133 100 -315 101q-96 0 -167 -53.5t-71 -126.5q0 -88 132 -138l163 -61q281 -104 281 -336q0 -238 -188.5 -390.5t-501.5 -152.5q-266 0 -469 129l151 219q188 -111 369 -110q135 0 216 64.5t81 170.5q0 98 -152 154l-149 55q-260 96 -260 316 q0 213 176 356t432 143q278 0 444 -143z" />
<glyph unicode="T" horiz-adv-x="1026" d="M1253 1423l-98 -237h-336l-252 -1186h-295l252 1186h-348l51 237h1026z" />
<glyph unicode="U" horiz-adv-x="1318" d="M1372 1423l-205 -958q-33 -150 -68.5 -226.5t-113.5 -136.5q-49 -35 -80 -54t-129 -47t-219 -28q-205 0 -320.5 84t-115.5 224q0 74 16 151l211 991h293l-199 -936q-16 -72 -16 -129q0 -72 50 -105.5t128 -33.5q96 0 161.5 47t90.5 125q12 33 31 121l194 911h291z" />
<glyph unicode="V" horiz-adv-x="1218" d="M1425 1423l-800 -1433h-260l-179 1433h306l73 -761q12 -127 13 -248q43 104 143 284l395 725h309z" />
<glyph unicode="W" horiz-adv-x="1683" d="M1890 1423l-649 -1431h-313l-4 575v26q0 183 26 433q-80 -246 -168 -455l-241 -579h-320l-35 1431h297l2 -561l-22 -477q98 293 172 463l250 575h309l-4 -637l-19 -385q12 43 72 206t109 276l231 540h307z" />
<glyph unicode="X" horiz-adv-x="1101" d="M1298 1423l-512 -673l275 -750h-336l-152 492l-350 -492h-368l614 768l-250 655h334l125 -397l278 397h342z" />
<glyph unicode="Y" horiz-adv-x="1134" d="M1362 1423l-633 -837l-125 -586h-299l125 586l-264 837h332l98 -389q27 -100 33 -182l114 178l269 393h350z" />
<glyph unicode="Z" horiz-adv-x="1105" d="M1225 1423l-45 -206l-709 -891q-41 -51 -88 -93q78 4 135 5h467l-98 -238h-910l43 201l701 866q53 66 110 125q-57 -6 -143 -6h-424l92 237h869z" />
<glyph unicode="[" horiz-adv-x="645" d="M756 1499l-41 -184h-185l-307 -1450h185l-39 -184h-430l387 1818h430z" />
<glyph unicode="\" horiz-adv-x="870" d="M745 -47l-249 -53l-277 1595l254 53z" />
<glyph unicode="]" horiz-adv-x="645" d="M709 1499l-387 -1818h-431l39 184h185l307 1450h-184l41 184h430z" />
<glyph unicode="^" horiz-adv-x="1224" d="M1149 702h-289l-125 488l-332 -488h-290l526 748h299z" />
<glyph unicode="_" horiz-adv-x="968" d="M866 -154l-28 -116h-1026l28 116h1026z" />
<glyph unicode="`" horiz-adv-x="618" d="M750 1288l-95 -147l-442 205l135 217z" />
<glyph unicode="a" horiz-adv-x="1083" d="M1040 997q-35 -98 -67 -258l-84 -397q-8 -39 -8 -78q0 -74 47 -127l-228 -170q-61 41 -79 129q-119 -125 -279 -125q-289 0 -289 334q0 182 61.5 342t159.5 258q164 164 418 164q225 0 348 -72zM729 840q-25 16 -74 16q-61 0 -101 -15.5t-91 -74.5q-59 -72 -94 -203 t-35 -246q0 -135 84 -135q61 0 120.5 51.5t82.5 112.5z" />
<glyph unicode="b" horiz-adv-x="1155" d="M1094 711q0 -197 -80 -369t-226 -274q-133 -94 -301 -95q-123 0 -237.5 28t-181.5 73q27 82 41 149l196 924q29 139 29 213q0 47 -8 80l284 88q8 -31 8 -88q0 -84 -20 -191l-35 -166q-20 -106 -39 -141q47 57 124 95t165 38q281 1 281 -364zM795 715q0 137 -82 137 q-61 0 -123 -46t-105 -118l-102 -467q45 -45 141 -45q43 0 93.5 36t78.5 87q39 70 69 207t30 209z" />
<glyph unicode="c" horiz-adv-x="913" d="M965 954l-160 -172q-68 78 -156 78q-74 0 -129 -61q-57 -66 -101 -205t-44 -260q0 -156 125 -156q96 0 229 105l92 -170q-182 -139 -385 -140q-174 0 -267 95.5t-93 265.5q0 188 75.5 356t190.5 264q147 125 344 125q168 0 279 -125z" />
<glyph unicode="d" horiz-adv-x="1126" d="M1184 1473l-232 -1090q-49 -236 -49 -326q0 -39 6 -57h-235q-11 41 -11 77q0 10 1 19q-106 -123 -265 -123q-322 0 -321 369q0 160 60.5 316.5t168.5 261.5q154 143 338 143q121 0 178 -29q6 49 21 121l76 361zM768 803q-41 41 -133 41q-80 0 -143 -82q-57 -74 -92 -196 t-35 -224q0 -152 106 -152q45 0 106.5 47.5t86.5 92.5z" />
<glyph unicode="e" horiz-adv-x="1056" d="M1032 784q0 -156 -139 -258t-391 -102q-33 0 -63.5 3t-45.5 7l-16 4q-10 -68 -10 -94q0 -168 176 -168q135 0 291 111l69 -172q-207 -143 -426 -144q-190 0 -293.5 98.5t-103.5 286.5q0 160 64.5 316.5t170.5 259.5q145 139 361 139q164 0 260 -70t96 -217zM756 762 q0 109 -111 108q-82 0 -138 -56t-85 -187q41 -10 78 -11q102 0 179 37t77 109z" />
<glyph unicode="f" horiz-adv-x="663" d="M954 1452l-118 -166q-57 31 -111 31q-115 0 -141 -119l-31 -149h266l-110 -189h-187l-168 -860q-27 -137 -100.5 -259t-161.5 -200l-168 152q45 45 93.5 136t64.5 171l172 860h-102l41 189h96q2 63 20 143q68 326 412 326q135 0 233 -66z" />
<glyph unicode="g" horiz-adv-x="1142" d="M1104 999q-29 -88 -39 -139l-117 -538q-25 -119 -45 -245t-29 -159q-29 -133 -118.5 -219t-198 -117t-242.5 -31q-211 0 -366 95l94 184q113 -74 295 -74q109 0 177.5 48.5t86.5 132.5q20 92 31 124q-100 -88 -227 -88q-172 0 -249 88.5t-77 272.5q0 162 60.5 323.5 t166.5 264.5q160 150 381 149q256 0 416 -72zM782 829q-33 25 -114 25q-41 0 -94.5 -26.5t-79.5 -63.5q-55 -74 -90 -196t-35 -226q0 -160 110 -160q49 0 106.5 45t84.5 95z" />
<glyph unicode="h" horiz-adv-x="1179" d="M1096 866q0 -51 -19 -133l-155 -733h-269l150 705q8 35 8 67q0 76 -84 76q-53 0 -130 -50t-128 -116l-145 -682h-273l246 1149q31 154 31 219q0 31 -9 72l277 88q10 -31 10 -88q0 -106 -22 -213l-37 -174q-16 -86 -35 -127q61 68 153.5 109.5t186.5 41.5q244 0 244 -211z " />
<glyph unicode="i" horiz-adv-x="573" d="M553 1073l-227 -1073h-275l219 1030zM643 1337.5q0 -71.5 -49 -121t-121 -49.5q-70 0 -119 50.5t-49 120t50.5 119.5t121.5 50q70 0 118 -49t48 -120.5z" />
<glyph unicode="j" horiz-adv-x="548" d="M532 1073l-221 -1044q-49 -227 -147 -326q-92 -96 -246 -154l-86 160q61 25 129 111q47 59 76 200l215 1010zM623 1337.5q0 -71.5 -49.5 -121t-120.5 -49.5q-70 0 -119 50.5t-49 120t50 119.5t122 50q70 0 118 -49t48 -120.5z" />
<glyph unicode="k" horiz-adv-x="1054" d="M602 1528q8 -33 8 -78q0 -115 -43 -317l-241 -1133h-275l246 1151q29 129 29 213q0 49 -9 76zM1153 1049l-428 -455l283 -594h-324l-225 594l354 455h340z" />
<glyph unicode="l" horiz-adv-x="577" d="M594 1528q4 -33 4 -80q0 -131 -25 -246l-165 -776q-35 -160 -35 -203q0 -59 53 -59q20 0 31 4l12 -164q-76 -29 -170 -29q-106 0 -161.5 51.5t-55.5 137.5q0 49 31 190l166 783q33 152 32 229q0 43 -8 74z" />
<glyph unicode="m" horiz-adv-x="1640" d="M1556 854q0 -61 -16 -137l-151 -717h-267l148 692q12 57 12 90t-15.5 46.5t-52.5 13.5q-53 0 -111.5 -43t-105.5 -115l-145 -684h-260l145 682q14 63 15 102q0 33 -15.5 45.5t-50.5 12.5q-104 0 -221 -158l-146 -684h-268l154 717q12 57 12 125q0 96 -16 141l254 100 q26 -60 25 -136q0 -15 -1 -32q154 156 336 156q178 0 193 -156q156 156 338 156q94 0 152 -53t58 -164z" />
<glyph unicode="n" horiz-adv-x="1128" d="M1047 864q0 -76 -17 -147l-151 -717h-271l146 682q14 72 14 94q0 37 -16.5 51.5t-55.5 14.5q-113 0 -229 -158l-145 -684h-271l150 707q18 84 18 151q0 70 -18 125l254 100q14 -25 22 -79q5 -37 6 -65q0 -14 -2 -26q147 158 355 158q98 0 154.5 -55.5t56.5 -151.5z" />
<glyph unicode="o" horiz-adv-x="1118" d="M1049 711q0 -141 -38 -270.5t-112 -234t-193.5 -167t-269.5 -62.5q-178 0 -275.5 96.5t-97.5 274.5q0 303 169 512t436 209q178 0 279.5 -94t101.5 -264zM754 711q0 86 -31 120.5t-96 34.5q-84 0 -150.5 -105.5t-94.5 -226t-28 -212.5q0 -145 129 -146q82 0 146.5 93 t94.5 212t30 230z" />
<glyph unicode="p" horiz-adv-x="1157" d="M1096 725q0 -150 -58.5 -325t-150.5 -267q-156 -156 -357 -156q-143 0 -213 41q2 -12 -10 -71l-69 -328l-279 -70l250 1174q15 71 15 133q0 70 -19 127l254 100q14 -20 22 -75q5 -37 6 -66q0 -14 -2 -27q147 156 330 156q133 0 207 -92t74 -254zM801 717q0 125 -96 125 q-127 0 -236 -166l-96 -449q12 -16 55 -30.5t84 -14.5q109 0 168 90q55 82 88 214.5t33 230.5z" />
<glyph unicode="q" horiz-adv-x="1144" d="M1108 995q-31 -84 -68 -254l-237 -1126l-279 -70l84 398q14 74 41 143q-51 -47 -127 -80t-137 -33q-156 0 -231.5 83t-75.5 263q0 164 59.5 324t157.5 260q168 168 432 168q270 0 381 -76zM797 840q-35 14 -133 14q-72 0 -140 -55q-80 -66 -120 -207q-36 -128 -36 -230 q0 -10 1 -20q6 -160 116.5 -160t200.5 154z" />
<glyph unicode="r" horiz-adv-x="755" d="M868 1051l-118 -242q-35 20 -80 20q-90 0 -199 -143l-145 -686h-275l148 692q21 93 20 169q0 68 -16 122l254 100q28 -60 27 -125q0 -22 -3 -45q156 160 293 160q49 1 94 -22z" />
<glyph unicode="s" horiz-adv-x="991" d="M961 983l-109 -184q-125 72 -256 71q-156 0 -156 -108q0 -66 111 -105l119 -43q88 -31 148.5 -95t60.5 -159q0 -168 -131.5 -280.5t-374.5 -112.5q-209 0 -408 117l111 201q66 -45 159 -77t179 -32q68 0 114.5 39t46.5 92q0 37 -29.5 59.5t-103.5 47.5l-116 41 q-193 70 -193 264q0 150 120 254t361 104q195 0 347 -94z" />
<glyph unicode="t" horiz-adv-x="647" d="M784 1049l-98 -189h-182l-111 -526q-10 -43 -10 -92q0 -76 92 -76q51 0 103 20v-166q-117 -45 -234 -45q-115 0 -181.5 50.5t-66.5 130.5q0 66 15 135l120 569h-104l41 189h104q33 166 64 247l289 70q-49 -156 -84 -317h243z" />
<glyph unicode="u" horiz-adv-x="1120" d="M1085 1073l-170 -801q-9 -47 -9 -87q0 -74 32 -126l-238 -94q-43 63 -49 139q-141 -131 -303 -131q-121 0 -188.5 57.5t-67.5 155.5q0 72 21 166l141 672l283 51l-144 -674q-20 -92 -20 -141q0 -33 20.5 -56.5t44.5 -23.5q57 0 124 50.5t102 105.5l145 682z" />
<glyph unicode="v" horiz-adv-x="950" d="M1096 1049l-607 -1049h-227l-162 1032l283 35l51 -473q13 -108 13 -205q0 -24 -1 -47q45 123 121 266l236 441h293z" />
<glyph unicode="w" horiz-adv-x="1431" d="M1548 1049l-522 -1049h-252l-18 360q-5 98 -6 179q0 40 2 75q2 74 6 105q-27 -76 -53 -135q-23 -53 -93.5 -205t-76.5 -164l-99 -215h-256l-67 1030l274 31v-404q0 -53 -3 -129.5t-5 -133t-2 -60.5q27 104 153 362l175 353h258l10 -347q2 -100 2 -182t-2 -135l-2 -53 q88 242 131 342l160 375h286z" />
<glyph unicode="x" horiz-adv-x="958" d="M1075 1049l-432 -506l262 -543h-323q-16 47 -49 132t-51.5 137.5t-22.5 80.5q-63 -106 -266 -350h-361l514 565l-196 436l282 76q72 -164 111 -313q59 100 200 285h332z" />
<glyph unicode="y" horiz-adv-x="1052" d="M1178 1049l-609 -1065q-152 -270 -274 -346q-121 -78 -275 -97l-55 185q123 27 185 65q59 37 94 78t88 131h-76q-8 162 -27 295l-94 737l283 33l51 -612l8 -217q72 182 141 313l265 500h295z" />
<glyph unicode="z" horiz-adv-x="872" d="M928 1049l-25 -189l-604 -670h463l-86 -190h-772l16 170l641 686h-438l29 193h776z" />
<glyph unicode="{" horiz-adv-x="815" d="M981 1499l-51 -233h-101q-57 0 -94 -23.5t-47 -47.5t-18 -60l-70 -330q-14 -68 -42 -112t-68.5 -63.5t-68.5 -26.5t-73 -11v-4q37 -4 58.5 -8.5t51 -17.5t44 -41.5t14.5 -71.5q0 -37 -8 -72l-70 -332q-6 -25 -6 -49q0 -82 111 -82h100l-49 -233h-215q-96 0 -153.5 51 t-57.5 153q0 51 10 95l74 352q2 10 2 26q0 47 -41 75t-79 34t-73 6l50 234q27 0 58.5 5t75.5 17t75.5 43t41.5 76l76 354q33 152 120 224.5t208 72.5h215z" />
<glyph unicode="|" horiz-adv-x="645" d="M719 1548l-418 -1974h-258l418 1974h258z" />
<glyph unicode="}" horiz-adv-x="815" d="M799 707l-49 -234q-29 0 -62 -5t-75 -17.5t-73.5 -43t-41.5 -75.5l-74 -355q-33 -152 -120 -224t-208 -72h-215l49 233h101q45 0 75.5 12.5t48 34t24.5 39.5t14 45l69 330q14 68 42 111.5t68 63t67.5 27t72.5 11.5v4q-37 4 -58.5 8t-51 17.5t-44 42t-14.5 71.5q0 37 8 72 l72 332q6 20 6 47q0 84 -113 84h-100l51 233h221q92 0 148.5 -51t56.5 -154q0 -51 -10 -94l-76 -352q-2 -10 -2 -27q0 -47 40 -74.5t77 -33.5t76 -6z" />
<glyph unicode="~" horiz-adv-x="1169" d="M1077 594q-127 -172 -305 -172q-84 0 -210 69.5t-183 69.5q-55 0 -103.5 -36t-107.5 -99l-55 213q133 180 309 180q72 0 206 -69.5t195 -69.5q39 0 77 19.5t62.5 41t63.5 62.5z" />
<glyph unicode="&#xa1;" horiz-adv-x="641" d="M451 543l-142 -955l-338 -47l271 1002h209zM580 852q0 -70 -50.5 -120t-120 -50t-118.5 50t-49 120t50 120t122 50q70 0 118 -49t48 -121z" />
<glyph unicode="&#xa2;" horiz-adv-x="913" d="M963 954l-160 -172q-68 78 -156 78q-74 0 -129 -61q-57 -66 -101 -205t-44 -260q0 -156 125 -156q96 0 229 105l92 -170q-141 -109 -284 -131l-46 -209h-192l45 209q-129 23 -198.5 113.5t-69.5 238.5q0 188 75.5 356t190.5 264q113 92 233 115l41 195h193l-41 -195 q115 -23 197 -115z" />
<glyph unicode="&#xa3;" horiz-adv-x="1210" d="M1409 1325l-229 -197q-59 76 -179 76q-127 0 -198.5 -73.5t-93.5 -182.5l-21 -100h320l-45 -209h-320l-86 -406h518l-49 -233h-1022l49 233h197l86 406h-197l45 209h197l31 145q45 215 202.5 348.5t407.5 133.5q252 0 387 -150z" />
<glyph unicode="&#xa4;" horiz-adv-x="915" d="M926 905l-121 -139q25 -45 24 -109q0 -80 -33.5 -170t-95.5 -147l66 -143l-246 -129q-35 80 -53 141q-70 -16 -150 0l-106 -146l-205 142l121 139q-23 43 -23 109q0 82 36 174t89 143l-65 143l246 127q41 -100 53 -141q14 6 71.5 7t81.5 -5l107 146zM588 551 q49 205 -82 205q-76 0 -110 -49.5t-52 -141.5q-27 -92 -13.5 -152.5t95.5 -60.5q51 0 86 35t49.5 71t26.5 93z" />
<glyph unicode="&#xa5;" horiz-adv-x="1110" d="M1337 1423l-436 -573h211l-45 -211h-324l-38 -53l-23 -103h352l-45 -211h-352l-57 -272h-299l57 272h-346l45 211h346l23 103l-19 53h-317l45 211h207l-181 573h334l98 -389q27 -100 33 -182l115 178l268 393h348z" />
<glyph unicode="&#xa6;" horiz-adv-x="565" d="M621 1548l-181 -848h-258l180 848h259zM383 422l-180 -848h-258l180 848h258z" />
<glyph unicode="&#xa7;" horiz-adv-x="1124" d="M1190 1268l-272 -146q-8 55 -57.5 87t-112.5 32q-59 0 -109.5 -35t-50.5 -90q0 -43 54 -83t132 -75.5t156 -76.5t132 -106.5t54 -145.5q0 -111 -65.5 -196t-169.5 -132q70 -66 69 -168q0 -209 -173 -325.5t-419 -116.5q-348 0 -413 260l274 125q2 -68 61.5 -103.5 t137.5 -35.5q63 0 125.5 33.5t62.5 92.5q0 49 -52 89.5t-127 71t-149.5 68.5t-127 103.5t-52.5 155.5q0 98 70 194.5t182 157.5q-84 61 -84 187q0 182 156 289.5t362 107.5q334 0 406 -219zM817 541q0 72 -106 129l-203 108q-49 -25 -80 -64.5t-31 -86.5q0 -78 138 -146 l176 -90q43 23 74.5 69t31.5 81z" />
<glyph unicode="&#xa8;" horiz-adv-x="892" d="M987 1300q0 -63 -47 -110t-110.5 -47t-109.5 46t-46 111.5t47 111.5t113 46q63 0 108 -46t45 -112zM555 1300q0 -63 -46 -110t-112 -47q-63 0 -109 47t-46 110.5t47 110.5t112 47q63 0 108.5 -46t45.5 -112z" />
<glyph unicode="&#xa9;" horiz-adv-x="1740" d="M1686 725q0 -315 -223.5 -538.5t-539 -223.5t-538.5 223.5t-223 538.5t223 538.5t538.5 223.5t539 -223.5t223.5 -538.5zM1477 725q0 238 -162 408t-391.5 170t-391 -170t-161.5 -408t161.5 -408t391 -170t391.5 170t162 408zM1186 406q-117 -88 -250 -89 q-170 0 -271.5 106.5t-101.5 285.5q0 186 102.5 305t272.5 119q135 0 229 -78l-94 -135q-78 51 -133 51q-154 0 -154 -234q0 -139 38 -200.5t124 -61.5q76 0 137 57z" />
<glyph unicode="&#xaa;" horiz-adv-x="894" d="M975 1516q-27 -70 -53 -193l-62 -293q-4 -29 -4 -39q0 -39 43 -88l-182 -135q-45 27 -66 78q-82 -72 -186.5 -72t-161.5 64.5t-57 185.5q0 125 45 242.5t117 189.5q119 119 301 119q160 0 266 -59zM885 649l-35 -160h-748l35 160h748zM717 1389q-20 4 -33 4 q-76 0 -125 -58q-41 -49 -62.5 -136t-21.5 -167q0 -78 43 -78q37 0 74 33t51 72z" />
<glyph unicode="&#xab;" horiz-adv-x="1173" d="M1184 860l-318 -358l158 -350l-209 -121l-223 479l428 479zM688 860l-317 -358l157 -350l-209 -121l-223 479l428 479z" />
<glyph unicode="&#xac;" horiz-adv-x="1062" d="M1014 629l-109 -510h-252l62 287h-652l48 223h903z" />
<glyph unicode="&#xad;" horiz-adv-x="735" d="M653 674l-51 -225h-491l51 225h491z" />
<glyph unicode="&#xae;" horiz-adv-x="1740" d="M1686 725q0 -315 -223.5 -538.5t-539 -223.5t-538.5 223.5t-223 538.5t223 538.5t538.5 223.5t539 -223.5t223.5 -538.5zM1477 725q0 238 -162 408t-391.5 170t-391 -170t-161.5 -408t161.5 -408t391 -170t391.5 170t162 408zM1268 350h-236l-82 133q-96 164 -110 176 v-309h-199v783h313q115 0 183.5 -66t68.5 -174q0 -86 -51 -145.5t-129 -67.5q47 -18 104 -107zM995 891q0 80 -100 80h-55v-158h53q57 0 79.5 18.5t22.5 59.5z" />
<glyph unicode="&#xaf;" horiz-adv-x="671" d="M881 1524l-33 -160h-643l33 160h643z" />
<glyph unicode="&#xb0;" horiz-adv-x="841" d="M770 1092q-31 -162 -141.5 -259.5t-280.5 -97.5q-135 0 -211 71t-76 193q0 193 125 319t301 126q129 0 211 -69.5t82 -186.5q0 -39 -10 -96zM543 1096q12 55 12 94q0 102 -100 102q-84 0 -129 -92t-45 -215q0 -96 100 -96q66 0 104 49t58 158z" />
<glyph unicode="&#xb1;" horiz-adv-x="1032" d="M1020 811l-49 -231h-307l-62 -293h-252l62 293h-308l50 231h307l59 281h252l-59 -281h307zM893 231l-49 -231h-858l49 231h858z" />
<glyph unicode="&#xb2;" horiz-adv-x="786" d="M713 1157q0 -55 -29 -114.5t-61.5 -101.5t-100 -101.5t-99.5 -81.5l-106 -78q12 0 37 1t35 1h273l-82 -170h-564l29 137q143 106 254 205q180 152 180 258q0 55 -65 55q-68 0 -195 -86l-88 129q184 133 367 133q100 0 157.5 -50t57.5 -136z" />
<glyph unicode="&#xb3;" horiz-adv-x="770" d="M727 1182q0 -133 -137 -213q84 -49 84 -138q0 -86 -54.5 -154.5t-137.5 -105t-168 -56t-162 -19.5q-55 0 -115 8l-23 151q80 -14 121 -14q102 0 202.5 46t100.5 138q0 61 -180 62h-33l35 166q70 -8 102 -9q55 0 95.5 23t40.5 74t-72 51q-94 0 -201 -74l-84 131 q182 115 342 115q109 0 176.5 -50t67.5 -132z" />
<glyph unicode="&#xb4;" horiz-adv-x="692" d="M809 1346l-490 -211l-81 153l473 273z" />
<glyph unicode="&#xb5;" horiz-adv-x="1144" d="M1110 1073l-170 -801q-23 -115 25 -190l-220 -111q-47 41 -59 103q-125 -100 -295 -101q-43 0 -69 23q-2 -31 -9 -57l-69 -320l-279 -70l314 1475l282 51l-143 -674q-27 -127 -15 -172q14 -49 86 -49q51 0 109.5 31t81.5 70l158 737z" />
<glyph unicode="&#xb6;" d="M1257 1450l-362 -1708h-184l331 1561h-219l-331 -1561h-185l203 950q-172 0 -269.5 81t-97.5 214q0 211 150.5 337t413.5 126h550z" />
<glyph unicode="&#xb7;" horiz-adv-x="636" d="M518 559q0 -74 -54 -127t-130 -53t-128 53t-52 129t54 130t130 54t128 -54t52 -132z" />
<glyph unicode="&#xb8;" horiz-adv-x="458" d="M283 -190q0 -90 -72 -154t-191 -64q-92 0 -167 50l84 127q61 -29 104 -29q27 0 45 12t18 33q0 33 -47 33q-2 0 -57 -13l-18 41l88 179l143 -13l-45 -78q115 -9 115 -124z" />
<glyph unicode="&#xb9;" horiz-adv-x="663" d="M573 1331l-139 -653h107l-37 -166h-441l37 166h131l91 426q-104 -49 -168 -70l-33 115l313 182h139z" />
<glyph unicode="&#xba;" horiz-adv-x="894" d="M977 1305q0 -217 -116 -373t-329 -156q-131 0 -203.5 75t-72.5 206q0 219 123 367.5t315 148.5q133 0 208 -69.5t75 -198.5zM877 649l-35 -160h-748l35 160h748zM739 1305q0 94 -73 94q-57 0 -99.5 -72t-58.5 -151.5t-16 -143.5q0 -84 73 -84q80 0 127 118t47 239z" />
<glyph unicode="&#xbb;" horiz-adv-x="1175" d="M1087 510l-428 -479l-163 129l317 358l-158 350l209 121zM592 510l-428 -479l-164 129l317 358l-157 350l209 121z" />
<glyph unicode="&#xbc;" horiz-adv-x="1896" d="M1778 1565l-1483 -1880h-221l1482 1880h222zM1759 319l-37 -174h-75l-15 2q0 -14 -2 -22l-33 -154l-200 -22l39 186l4 10h-365l29 129l338 547h215l-262 -424q-31 -47 -56 -78h142q18 84 84 289l176 37l-45 -213q-2 -6 -10.5 -47t-12.5 -53l-4 -15q4 0 10.5 1t8.5 1h71z M635 1331l-137 -653h106l-37 -166h-440l37 166h131l90 426q-104 -49 -168 -70l-35 115l314 182h139z" />
<glyph unicode="&#xbd;" horiz-adv-x="1892" d="M1735 1565l-1483 -1880h-221l1482 1880h222zM1774 645q0 -70 -36 -137.5t-107.5 -135t-121.5 -105.5l-135 -99q12 0 40 1t38 1h272l-84 -170h-563l29 137q156 117 256 205q178 156 178 258q0 55 -65 55q-68 0 -195 -86l-86 129q184 133 365 133q100 0 157.5 -50 t57.5 -136zM635 1331l-137 -653h106l-37 -166h-440l37 166h131l90 426q-104 -49 -168 -70l-35 115l314 182h139z" />
<glyph unicode="&#xbe;" horiz-adv-x="2002" d="M1884 1565l-1483 -1880h-221l1483 1880h221zM1866 319l-37 -174h-76l-14 2q0 -14 -2 -22l-33 -154l-201 -22l39 186l4 10h-364l28 129l338 547h215l-262 -424q-31 -47 -55 -78h141q18 84 84 289l176 37l-45 -213q-2 -6 -10 -47t-12 -53l-4 -15q4 0 10 1t8 1h72zM793 1182 q0 -133 -138 -213q82 -47 82 -138q0 -86 -53 -154.5t-136 -105t-168 -56t-163 -19.5q-57 0 -117 8l-22 151q78 -14 123 -14q59 0 124.5 16.5t122 60.5t56.5 107q0 23 -12.5 37.5t-40 18.5t-43 6t-52.5 2l-34 -2h-33l35 166q70 -8 104 -9q55 0 95 23t40 74t-71 51 q-96 0 -203 -74l-82 131q182 115 342 115q109 0 176.5 -50t67.5 -132z" />
<glyph unicode="&#xbf;" horiz-adv-x="929" d="M696 -287q-70 -59 -184.5 -110.5t-249.5 -51.5q-139 0 -231 77t-92 202q0 133 66.5 222t189.5 157q207 117 229 334h233q6 -156 -59.5 -261.5t-202.5 -191.5q-111 -70 -142.5 -103.5t-31.5 -92.5q0 -53 39 -79t102 -26q137 0 242 90zM748 852q0 -70 -50.5 -120t-120 -50 t-118.5 50t-49 120t50 120t122 50q70 0 118 -49t48 -121z" />
<glyph unicode="&#xc0;" d="M1122 0h-297l-28 338h-418l-172 -338h-309l770 1427h309zM778 575l-20 297q-8 121 -6 242q-76 -172 -125 -274l-127 -265h278zM1071 1622l-94 -147l-442 204l135 217z" />
<glyph unicode="&#xc1;" d="M1122 0h-297l-28 338h-418l-172 -338h-309l770 1427h309zM778 575l-20 297q-8 121 -6 242q-76 -172 -125 -274l-127 -265h278zM1176 1679l-490 -211l-82 154l473 272z" />
<glyph unicode="&#xc2;" d="M1122 0h-297l-28 338h-418l-172 -338h-309l770 1427h309zM778 575l-20 297q-8 121 -6 242q-76 -172 -125 -274l-127 -265h278zM1202 1614l-110 -150l-252 160l-310 -160l-73 150l428 276z" />
<glyph unicode="&#xc3;" d="M1122 0h-297l-28 338h-418l-172 -338h-309l770 1427h309zM778 575l-20 297q-8 121 -6 242q-76 -172 -125 -274l-127 -265h278zM1198 1649q-72 -70 -135.5 -104t-147.5 -34q-55 0 -125.5 41t-123.5 41q-31 0 -58.5 -11t-46 -24.5t-49.5 -39.5l-68 153q72 70 131.5 102.5 t135.5 32.5q55 0 131 -41t135 -41q70 0 153 72z" />
<glyph unicode="&#xc4;" d="M1122 0h-297l-28 338h-418l-172 -338h-309l770 1427h309zM778 575l-20 297q-8 121 -6 242q-76 -172 -125 -274l-127 -265h278zM770 1638.5q0 -65.5 -47 -111.5t-110.5 -46t-109.5 47t-46 110.5t47 110.5t112 47q63 0 108.5 -46t45.5 -111.5zM1202 1638.5 q0 -65.5 -46 -111.5t-112 -46q-63 0 -109 47t-46 110.5t47 110.5t113 47q63 0 108 -46t45 -111.5z" />
<glyph unicode="&#xc5;" d="M1122 0h-297l-28 338h-418l-172 -338h-309l770 1427h309zM778 575l-20 297q-8 121 -6 242q-76 -172 -125 -274l-127 -265h278zM1044 1677q0 -88 -63 -152.5t-154 -64.5q-88 0 -150.5 63.5t-62.5 153.5q0 88 64.5 152.5t153 64.5t150.5 -63.5t62 -153.5zM915 1677 q0 37 -24.5 62.5t-59.5 25.5q-39 0 -64.5 -25.5t-25.5 -62.5t26 -62.5t60 -25.5q37 0 62.5 25.5t25.5 62.5z" />
<glyph unicode="&#xc6;" horiz-adv-x="1615" d="M1767 1423l-88 -233h-475l-69 -330h407l-49 -233h-403l-80 -381h546l-53 -246h-837l71 338h-379l-262 -338h-332l1151 1423h852zM543 575h245l105 467q-6 -6 -78 -103l-156 -211q-83 -114 -116 -153z" />
<glyph unicode="&#xc7;" horiz-adv-x="1128" d="M1255 1341l-165 -188q-82 74 -216 74q-72 0 -144.5 -35t-121.5 -92q-86 -96 -141 -294t-55 -339q0 -270 252 -270q119 0 262 98l98 -186q-188 -133 -428 -134h-31l-22 -41q115 -10 114 -124q0 -90 -71.5 -154t-190.5 -64q-92 0 -168 50l84 127q61 -29 105 -29q27 0 45 12 t18 33q0 33 -47 33q-2 0 -57 -13l-19 41l74 148q-164 41 -251 165t-87 316q0 168 58.5 351.5t156.5 312.5q113 152 274.5 233.5t338.5 81.5q104 0 196 -31t139 -82z" />
<glyph unicode="&#xc8;" horiz-adv-x="1013" d="M1176 1423l-89 -233h-483l-69 -330h403l-49 -233h-402l-79 -381h536l-53 -246h-830l304 1423h811zM961 1622l-95 -147l-442 204l135 217z" />
<glyph unicode="&#xc9;" horiz-adv-x="1013" d="M1176 1423l-89 -233h-483l-69 -330h403l-49 -233h-402l-79 -381h536l-53 -246h-830l304 1423h811zM1090 1679l-490 -211l-82 154l473 272z" />
<glyph unicode="&#xca;" horiz-adv-x="1013" d="M1176 1423l-89 -233h-483l-69 -330h403l-49 -233h-402l-79 -381h536l-53 -246h-830l304 1423h811zM1167 1614l-110 -150l-252 160l-309 -160l-74 150l428 276z" />
<glyph unicode="&#xcb;" horiz-adv-x="1013" d="M1176 1423l-89 -233h-483l-69 -330h403l-49 -233h-402l-79 -381h536l-53 -246h-830l304 1423h811zM725 1638.5q0 -65.5 -47 -111.5t-110.5 -46t-109.5 47t-46 110.5t47 110.5t112 47q63 0 108.5 -46t45.5 -111.5zM1157 1638.5q0 -65.5 -46 -111.5t-112 -46q-63 0 -109 47 t-46 110.5t47 110.5t113 47q63 0 108 -46t45 -111.5z" />
<glyph unicode="&#xcc;" horiz-adv-x="608" d="M662 1423l-304 -1423h-297l304 1423h297zM764 1622l-94 -147l-443 204l135 217z" />
<glyph unicode="&#xcd;" horiz-adv-x="608" d="M662 1423l-304 -1423h-297l304 1423h297zM870 1679l-489 -211l-82 154l473 272z" />
<glyph unicode="&#xce;" horiz-adv-x="608" d="M662 1423l-304 -1423h-297l304 1423h297zM907 1614l-110 -150l-252 160l-309 -160l-74 150l428 276z" />
<glyph unicode="&#xcf;" horiz-adv-x="608" d="M662 1423l-304 -1423h-297l304 1423h297zM477 1638.5q0 -65.5 -46 -111.5t-112 -46q-63 0 -109 47t-46 110.5t47 110.5t113 47q63 0 108 -46t45 -111.5zM909 1638.5q0 -65.5 -47 -111.5t-110.5 -46t-109.5 47t-46 110.5t47 110.5t113 47q63 0 108 -46t45 -111.5z" />
<glyph unicode="&#xd0;" horiz-adv-x="1286" d="M1264 938q0 -188 -68 -390t-192 -335q-113 -119 -244 -166t-363 -47h-346l133 627h-155l39 182h155l131 614h328q190 0 300 -29.5t173 -109.5q109 -139 109 -346zM954 942q0 117 -48 186.5t-179 69.5h-129l-82 -389h217l-88 -182h-168l-84 -394h142q172 0 266 148 q82 129 117.5 297t35.5 264z" />
<glyph unicode="&#xd1;" horiz-adv-x="1300" d="M1354 1423l-303 -1423h-295l-127 545q-92 397 -99 471q-18 -150 -71 -408l-121 -608h-277l304 1423h313l151 -569q57 -215 74 -410q27 248 60 398l118 581h273zM1235 1649q-72 -70 -135.5 -104t-147.5 -34q-55 0 -125.5 41t-124.5 41q-31 0 -58.5 -11t-45.5 -24.5 t-49 -39.5l-68 153q72 70 131.5 102.5t135.5 32.5q55 0 130.5 -41t135.5 -41q70 0 153 72z" />
<glyph unicode="&#xd2;" horiz-adv-x="1421" d="M1407 930q0 -276 -130 -530.5t-341 -354.5q-141 -68 -322 -68q-252 0 -369.5 136.5t-117.5 373.5q0 281 111.5 497t267.5 329q176 129 418 129q233 0 358 -135t125 -377zM1085 989q0 231 -213 232q-154 0 -247 -125q-80 -104 -134.5 -302t-54.5 -350q0 -133 55.5 -190 t165.5 -57q143 0 232 106q86 106 141 315t55 371zM1147 1622l-94 -147l-443 204l135 217z" />
<glyph unicode="&#xd3;" horiz-adv-x="1421" d="M1407 930q0 -276 -130 -530.5t-341 -354.5q-141 -68 -322 -68q-252 0 -369.5 136.5t-117.5 373.5q0 281 111.5 497t267.5 329q176 129 418 129q233 0 358 -135t125 -377zM1085 989q0 231 -213 232q-154 0 -247 -125q-80 -104 -134.5 -302t-54.5 -350q0 -133 55.5 -190 t165.5 -57q143 0 232 106q86 106 141 315t55 371zM1262 1679l-490 -211l-82 154l473 272z" />
<glyph unicode="&#xd4;" horiz-adv-x="1421" d="M1407 930q0 -276 -130 -530.5t-341 -354.5q-141 -68 -322 -68q-252 0 -369.5 136.5t-117.5 373.5q0 281 111.5 497t267.5 329q176 129 418 129q233 0 358 -135t125 -377zM1085 989q0 231 -213 232q-154 0 -247 -125q-80 -104 -134.5 -302t-54.5 -350q0 -133 55.5 -190 t165.5 -57q143 0 232 106q86 106 141 315t55 371zM1296 1614l-110 -150l-252 160l-309 -160l-74 150l428 276z" />
<glyph unicode="&#xd5;" horiz-adv-x="1421" d="M1407 930q0 -276 -130 -530.5t-341 -354.5q-141 -68 -322 -68q-252 0 -369.5 136.5t-117.5 373.5q0 281 111.5 497t267.5 329q176 129 418 129q233 0 358 -135t125 -377zM1085 989q0 231 -213 232q-154 0 -247 -125q-80 -104 -134.5 -302t-54.5 -350q0 -133 55.5 -190 t165.5 -57q143 0 232 106q86 106 141 315t55 371zM1292 1649q-72 -70 -135 -104t-147 -34q-55 0 -126 41t-124 41q-31 0 -58.5 -11t-46 -24.5t-49.5 -39.5l-67 153q72 70 131 102.5t135 32.5q55 0 131 -41t135 -41q70 0 154 72z" />
<glyph unicode="&#xd6;" horiz-adv-x="1421" d="M1407 930q0 -276 -130 -530.5t-341 -354.5q-141 -68 -322 -68q-252 0 -369.5 136.5t-117.5 373.5q0 281 111.5 497t267.5 329q176 129 418 129q233 0 358 -135t125 -377zM1085 989q0 231 -213 232q-154 0 -247 -125q-80 -104 -134.5 -302t-54.5 -350q0 -133 55.5 -190 t165.5 -57q143 0 232 106q86 106 141 315t55 371zM889 1638.5q0 -65.5 -47 -111.5t-110.5 -46t-110 47t-46.5 110.5t47.5 110.5t112.5 47q63 0 108.5 -46t45.5 -111.5zM1321 1638.5q0 -65.5 -46 -111.5t-112 -46q-63 0 -109 47t-46 110.5t47 110.5t112 47q63 0 108.5 -46 t45.5 -111.5z" />
<glyph unicode="&#xd7;" horiz-adv-x="1282" d="M1194 926l-371 -305l240 -306l-221 -182l-240 305l-371 -305l-143 182l371 306l-240 305l221 182l240 -305l371 305z" />
<glyph unicode="&#xd8;" horiz-adv-x="1347" d="M1370 1485l-184 -223q90 -131 90 -332q0 -276 -131 -530.5t-340 -356.5q-131 -66 -322 -66q-176 0 -290 72l-197 -237l-119 100l203 248q-82 123 -82 327q0 281 108.5 497t264.5 329q176 129 422 129q168 0 280 -72l176 213zM903 1161q-55 59 -162 60q-154 0 -247 -125 q-80 -104 -134.5 -302t-54.5 -350v-12zM954 979l-594 -725q51 -57 166 -57q143 0 232 106q86 104 140 308t56 368z" />
<glyph unicode="&#xd9;" horiz-adv-x="1318" d="M1382 1423l-204 -958q-33 -150 -69 -226.5t-114 -136.5q-49 -35 -79.5 -54t-129 -47t-219.5 -28q-205 0 -320.5 84t-115.5 224q0 74 16 151l211 991h293l-198 -936q-16 -72 -17 -129q0 -72 50.5 -105.5t127.5 -33.5q96 0 162 47t90 125q12 33 31 121l195 911h290z M1128 1622l-94 -147l-442 204l135 217z" />
<glyph unicode="&#xda;" horiz-adv-x="1318" d="M1382 1423l-204 -958q-33 -150 -69 -226.5t-114 -136.5q-49 -35 -79.5 -54t-129 -47t-219.5 -28q-205 0 -320.5 84t-115.5 224q0 74 16 151l211 991h293l-198 -936q-16 -72 -17 -129q0 -72 50.5 -105.5t127.5 -33.5q96 0 162 47t90 125q12 33 31 121l195 911h290z M1180 1679l-490 -211l-82 154l473 272z" />
<glyph unicode="&#xdb;" horiz-adv-x="1318" d="M1382 1423l-204 -958q-33 -150 -69 -226.5t-114 -136.5q-49 -35 -79.5 -54t-129 -47t-219.5 -28q-205 0 -320.5 84t-115.5 224q0 74 16 151l211 991h293l-198 -936q-16 -72 -17 -129q0 -72 50.5 -105.5t127.5 -33.5q96 0 162 47t90 125q12 33 31 121l195 911h290z M1274 1614l-111 -150l-252 160l-309 -160l-74 150l428 276z" />
<glyph unicode="&#xdc;" horiz-adv-x="1318" d="M1382 1423l-204 -958q-33 -150 -69 -226.5t-114 -136.5q-49 -35 -79.5 -54t-129 -47t-219.5 -28q-205 0 -320.5 84t-115.5 224q0 74 16 151l211 991h293l-198 -936q-16 -72 -17 -129q0 -72 50.5 -105.5t127.5 -33.5q96 0 162 47t90 125q12 33 31 121l195 911h290z M848 1638.5q0 -65.5 -47 -111.5t-110.5 -46t-109.5 47t-46 110.5t47 110.5t112 47q63 0 108.5 -46t45.5 -111.5zM1280 1638.5q0 -65.5 -46 -111.5t-112 -46q-63 0 -109 47t-46 110.5t47 110.5t112 47q63 0 108.5 -46t45.5 -111.5z" />
<glyph unicode="&#xdd;" horiz-adv-x="1134" d="M1372 1423l-633 -837l-125 -586h-299l125 586l-264 837h332l98 -389q27 -100 33 -182l115 178l268 393h350zM1065 1679l-490 -211l-81 154l473 272z" />
<glyph unicode="&#xde;" horiz-adv-x="1202" d="M1223 872q0 -373 -330 -524q-106 -49 -305 -49h-152l-63 -299h-293l303 1423h293l-47 -225h82q268 0 368 -65q144 -89 144 -261zM913 817q0 150 -157 150h-176l-93 -435h144q152 0 209 70q73 88 73 215z" />
<glyph unicode="&#xdf;" horiz-adv-x="1249" d="M1192 1194q0 -100 -48 -173t-106.5 -103.5t-106.5 -60.5t-48 -52q0 -27 42 -56.5t93 -58t93 -92t42 -145.5q0 -207 -165 -343.5t-398 -136.5q-100 0 -148 25l101 188q27 -10 59 -10q109 0 179.5 71.5t70.5 184.5q0 49 -23.5 85t-56.5 57l-65 44q-33 23 -56.5 59t-23.5 87 q0 59 26.5 101t63.5 68l75 51q38 26 64.5 71t26.5 110q0 106 -105 107q-86 0 -130 -52.5t-79 -209.5l-215 -1010q-29 -137 -104.5 -259t-163.5 -200l-168 152q45 45 93 135t67 172l182 860h-158l39 189h158l6 32q39 207 163 305.5t351 98.5q174 0 273.5 -81t99.5 -210z" />
<glyph unicode="&#xe0;" horiz-adv-x="1083" d="M1051 997q-35 -98 -68 -258l-84 -397q-8 -39 -8 -78q0 -74 47 -127l-227 -170q-61 41 -80 129q-119 -125 -279 -125q-289 0 -289 334q0 182 61.5 342t160.5 258q164 164 417 164q226 0 349 -72zM739 840q-25 16 -73 16q-61 0 -101.5 -15.5t-91.5 -74.5q-59 -72 -94 -203 t-35 -246q0 -135 84 -135q61 0 120.5 51.5t82.5 112.5zM948 1288l-94 -147l-442 205l135 217z" />
<glyph unicode="&#xe1;" horiz-adv-x="1083" d="M1051 997q-35 -98 -68 -258l-84 -397q-8 -39 -8 -78q0 -74 47 -127l-227 -170q-61 41 -80 129q-119 -125 -279 -125q-289 0 -289 334q0 182 61.5 342t160.5 258q164 164 417 164q226 0 349 -72zM739 840q-25 16 -73 16q-61 0 -101.5 -15.5t-91.5 -74.5q-59 -72 -94 -203 t-35 -246q0 -135 84 -135q61 0 120.5 51.5t82.5 112.5zM1049 1346l-490 -211l-82 153l473 273z" />
<glyph unicode="&#xe2;" horiz-adv-x="1083" d="M1051 997q-35 -98 -68 -258l-84 -397q-8 -39 -8 -78q0 -74 47 -127l-227 -170q-61 41 -80 129q-119 -125 -279 -125q-289 0 -289 334q0 182 61.5 342t160.5 258q164 164 417 164q226 0 349 -72zM739 840q-25 16 -73 16q-61 0 -101.5 -15.5t-91.5 -74.5q-59 -72 -94 -203 t-35 -246q0 -135 84 -135q61 0 120.5 51.5t82.5 112.5zM1073 1280l-110 -150l-252 160l-310 -160l-73 150l428 276z" />
<glyph unicode="&#xe3;" horiz-adv-x="1083" d="M1051 997q-35 -98 -68 -258l-84 -397q-8 -39 -8 -78q0 -74 47 -127l-227 -170q-61 41 -80 129q-119 -125 -279 -125q-289 0 -289 334q0 182 61.5 342t160.5 258q164 164 417 164q226 0 349 -72zM739 840q-25 16 -73 16q-61 0 -101.5 -15.5t-91.5 -74.5q-59 -72 -94 -203 t-35 -246q0 -135 84 -135q61 0 120.5 51.5t82.5 112.5zM1085 1321q-72 -70 -135 -103.5t-147 -33.5q-55 0 -126 41t-124 41q-31 0 -58.5 -11.5t-46 -24.5t-49.5 -40l-67 153q72 70 131 103t135 33q55 0 131 -41t135 -41q70 0 154 71z" />
<glyph unicode="&#xe4;" horiz-adv-x="1083" d="M1051 997q-35 -98 -68 -258l-84 -397q-8 -39 -8 -78q0 -74 47 -127l-227 -170q-61 41 -80 129q-119 -125 -279 -125q-289 0 -289 334q0 182 61.5 342t160.5 258q164 164 417 164q226 0 349 -72zM739 840q-25 16 -73 16q-61 0 -101.5 -15.5t-91.5 -74.5q-59 -72 -94 -203 t-35 -246q0 -135 84 -135q61 0 120.5 51.5t82.5 112.5zM672 1300q0 -63 -47 -110t-110.5 -47t-110 47t-46.5 110.5t47.5 110.5t112.5 47q63 0 108.5 -46t45.5 -112zM1104 1300q0 -63 -46 -110t-112 -47q-63 0 -109 47t-46 110.5t47 110.5t112 47q63 0 108.5 -46t45.5 -112z " />
<glyph unicode="&#xe5;" horiz-adv-x="1083" d="M1051 997q-35 -98 -68 -258l-84 -397q-8 -39 -8 -78q0 -74 47 -127l-227 -170q-61 41 -80 129q-119 -125 -279 -125q-289 0 -289 334q0 182 61.5 342t160.5 258q164 164 417 164q226 0 349 -72zM739 840q-25 16 -73 16q-61 0 -101.5 -15.5t-91.5 -74.5q-59 -72 -94 -203 t-35 -246q0 -135 84 -135q61 0 120.5 51.5t82.5 112.5zM948 1350q0 -88 -64.5 -152.5t-152.5 -64.5t-150.5 63.5t-62.5 153.5q0 88 64.5 152.5t152.5 64.5t150.5 -63.5t62.5 -153.5zM819 1349.5q0 36.5 -24.5 62.5t-59.5 26q-39 0 -64.5 -26t-25.5 -62.5t25.5 -62 t60.5 -25.5q37 0 62.5 25.5t25.5 62z" />
<glyph unicode="&#xe6;" horiz-adv-x="1605" d="M1581 776q0 -123 -117 -233q-125 -119 -413 -119l-125 8q-10 -61 -11 -88q0 -168 177 -168q135 0 290 111l70 -172q-207 -143 -426 -144q-221 0 -321 138q-133 -147 -351 -148q-141 0 -221 75t-80 187q0 193 158 309.5t432 116.5q8 0 26.5 -1t35.5 -1l10 43q10 45 10 82 q0 39 -23.5 56.5t-76.5 17.5q-135 0 -328 -113l-80 191q104 61 239.5 104t252.5 43q141 0 239 -90q129 90 277 90q162 0 259 -70.5t97 -224.5zM662 459h-27q-150 0 -214.5 -47t-64.5 -154q0 -43 26 -69.5t69 -26.5q96 0 147 69q23 31 64 228zM1305 762q0 109 -111 108 q-174 0 -223 -249q41 -4 78 -5q102 0 179 37t77 109z" />
<glyph unicode="&#xe7;" horiz-adv-x="913" d="M965 954l-160 -172q-68 78 -156 78q-74 0 -129 -61q-57 -66 -101 -205t-44 -260q0 -156 125 -156q96 0 229 105l92 -170q-176 -133 -368 -140l-23 -39q115 -10 115 -124q0 -90 -72 -154t-190 -64q-92 0 -168 50l84 127q61 -29 104 -29q27 0 45.5 12t18.5 33q0 33 -48 33 q-2 0 -57 -13l-18 41l69 142q-238 63 -237 346q0 188 75.5 356t190.5 264q147 125 344 125q168 0 279 -125z" />
<glyph unicode="&#xe8;" horiz-adv-x="1056" d="M1042 784q0 -156 -139 -258t-391 -102q-33 0 -63.5 3t-47.5 7l-14 4q-10 -68 -10 -94q0 -168 176 -168q135 0 291 111l69 -172q-207 -143 -426 -144q-190 0 -293.5 98.5t-103.5 286.5q0 160 64.5 316.5t171.5 259.5q145 139 360 139q164 0 260 -70t96 -217zM766 762 q0 109 -111 108q-82 0 -138 -56t-85 -187q41 -10 78 -11q102 0 179 37t77 109zM926 1288l-95 -147l-442 205l135 217z" />
<glyph unicode="&#xe9;" horiz-adv-x="1056" d="M1042 784q0 -156 -139 -258t-391 -102q-33 0 -63.5 3t-47.5 7l-14 4q-10 -68 -10 -94q0 -168 176 -168q135 0 291 111l69 -172q-207 -143 -426 -144q-190 0 -293.5 98.5t-103.5 286.5q0 160 64.5 316.5t171.5 259.5q145 139 360 139q164 0 260 -70t96 -217zM766 762 q0 109 -111 108q-82 0 -138 -56t-85 -187q41 -10 78 -11q102 0 179 37t77 109zM1024 1346l-489 -211l-82 153l473 273z" />
<glyph unicode="&#xea;" horiz-adv-x="1056" d="M1042 784q0 -156 -139 -258t-391 -102q-33 0 -63.5 3t-47.5 7l-14 4q-10 -68 -10 -94q0 -168 176 -168q135 0 291 111l69 -172q-207 -143 -426 -144q-190 0 -293.5 98.5t-103.5 286.5q0 160 64.5 316.5t171.5 259.5q145 139 360 139q164 0 260 -70t96 -217zM766 762 q0 109 -111 108q-82 0 -138 -56t-85 -187q41 -10 78 -11q102 0 179 37t77 109zM1065 1280l-111 -150l-252 160l-309 -160l-74 150l429 276z" />
<glyph unicode="&#xeb;" horiz-adv-x="1056" d="M1042 784q0 -156 -139 -258t-391 -102q-33 0 -63.5 3t-47.5 7l-14 4q-10 -68 -10 -94q0 -168 176 -168q135 0 291 111l69 -172q-207 -143 -426 -144q-190 0 -293.5 98.5t-103.5 286.5q0 160 64.5 316.5t171.5 259.5q145 139 360 139q164 0 260 -70t96 -217zM766 762 q0 109 -111 108q-82 0 -138 -56t-85 -187q41 -10 78 -11q102 0 179 37t77 109zM657 1300q0 -63 -46 -110t-111 -47q-63 0 -109.5 47t-46.5 110.5t47 110.5t113 47q63 0 108 -46t45 -112zM1090 1300q0 -63 -47.5 -110t-111 -47t-109.5 47t-46 110.5t47 110.5t113 47 q63 0 108.5 -46t45.5 -112z" />
<glyph unicode="&#xec;" horiz-adv-x="573" d="M563 1073l-227 -1073h-275l220 1030zM680 1288l-94 -147l-443 205l136 217z" />
<glyph unicode="&#xed;" horiz-adv-x="573" d="M563 1073l-227 -1073h-275l220 1030zM803 1346l-490 -211l-82 153l474 273z" />
<glyph unicode="&#xee;" horiz-adv-x="573" d="M563 1073l-227 -1073h-275l220 1030zM827 1280l-110 -150l-252 160l-309 -160l-74 150l428 276z" />
<glyph unicode="&#xef;" horiz-adv-x="573" d="M563 1073l-227 -1073h-275l220 1030zM395 1300q0 -63 -46 -110t-111 -47q-63 0 -109.5 47t-46.5 110.5t47 110.5t113 47q63 0 108 -46t45 -112zM827 1300q0 -63 -47 -110t-110.5 -47t-109.5 47t-46 110.5t47 110.5t113 47q63 0 108 -46t45 -112z" />
<glyph unicode="&#xf0;" horiz-adv-x="1097" d="M983 655q0 -178 -62.5 -329.5t-195.5 -251t-313 -99.5q-176 0 -281.5 91.5t-105.5 273.5q0 225 154.5 375.5t383.5 150.5q41 0 111 -18q-53 131 -154 203l-104 -97l-150 74l121 111q-121 61 -274 78l206 194q145 -16 273 -84l78 74l151 -74l-94 -88q121 -98 188.5 -258 t67.5 -326zM698 618q-51 31 -161 31q-113 0 -172.5 -88t-59.5 -201q0 -76 38 -118.5t110 -42.5q74 0 126 46t75.5 118.5t33.5 135t10 119.5z" />
<glyph unicode="&#xf1;" horiz-adv-x="1128" d="M1057 864q0 -76 -17 -147l-151 -717h-271l146 682q14 72 14 94q0 37 -16.5 51.5t-54.5 14.5q-113 0 -230 -158l-145 -684h-271l150 707q18 84 18 151q0 70 -18 125l254 100q14 -25 22.5 -80t4.5 -90q147 158 354 158q98 0 154.5 -55.5t56.5 -151.5zM1081 1321 q-72 -70 -135 -103.5t-147 -33.5q-55 0 -126 41t-124 41q-31 0 -58.5 -11.5t-46 -24.5t-49.5 -40l-67 153q72 70 131 103t135 33q55 0 131 -41t135 -41q70 0 154 71z" />
<glyph unicode="&#xf2;" horiz-adv-x="1118" d="M1059 711q0 -141 -38 -270.5t-111.5 -234t-193.5 -167t-270 -62.5q-178 0 -275 96.5t-97 274.5q0 303 169 512t435 209q178 0 279.5 -94t101.5 -264zM764 711q0 86 -31 120.5t-96 34.5q-84 0 -150.5 -105.5t-94 -226t-27.5 -212.5q0 -145 129 -146q82 0 146.5 93t94 212 t29.5 230zM934 1288l-94 -147l-443 205l135 217z" />
<glyph unicode="&#xf3;" horiz-adv-x="1118" d="M1059 711q0 -141 -38 -270.5t-111.5 -234t-193.5 -167t-270 -62.5q-178 0 -275 96.5t-97 274.5q0 303 169 512t435 209q178 0 279.5 -94t101.5 -264zM764 711q0 86 -31 120.5t-96 34.5q-84 0 -150.5 -105.5t-94 -226t-27.5 -212.5q0 -145 129 -146q82 0 146.5 93t94 212 t29.5 230zM1018 1346l-490 -211l-82 153l474 273z" />
<glyph unicode="&#xf4;" horiz-adv-x="1118" d="M1059 711q0 -141 -38 -270.5t-111.5 -234t-193.5 -167t-270 -62.5q-178 0 -275 96.5t-97 274.5q0 303 169 512t435 209q178 0 279.5 -94t101.5 -264zM764 711q0 86 -31 120.5t-96 34.5q-84 0 -150.5 -105.5t-94 -226t-27.5 -212.5q0 -145 129 -146q82 0 146.5 93t94 212 t29.5 230zM1063 1280l-111 -150l-252 160l-309 -160l-74 150l428 276z" />
<glyph unicode="&#xf5;" horiz-adv-x="1118" d="M1059 711q0 -141 -38 -270.5t-111.5 -234t-193.5 -167t-270 -62.5q-178 0 -275 96.5t-97 274.5q0 303 169 512t435 209q178 0 279.5 -94t101.5 -264zM764 711q0 86 -31 120.5t-96 34.5q-84 0 -150.5 -105.5t-94 -226t-27.5 -212.5q0 -145 129 -146q82 0 146.5 93t94 212 t29.5 230zM1069 1321q-72 -70 -135.5 -103.5t-147.5 -33.5q-55 0 -125.5 41t-123.5 41q-31 0 -58.5 -11.5t-46 -24.5t-49.5 -40l-68 153q72 70 131.5 103t135.5 33q55 0 130.5 -41t135.5 -41q70 0 153 71z" />
<glyph unicode="&#xf6;" horiz-adv-x="1118" d="M1059 711q0 -141 -38 -270.5t-111.5 -234t-193.5 -167t-270 -62.5q-178 0 -275 96.5t-97 274.5q0 303 169 512t435 209q178 0 279.5 -94t101.5 -264zM764 711q0 86 -31 120.5t-96 34.5q-84 0 -150.5 -105.5t-94 -226t-27.5 -212.5q0 -145 129 -146q82 0 146.5 93t94 212 t29.5 230zM645 1300q0 -63 -46 -110t-112 -47q-63 0 -109 47t-46 110.5t47 110.5t113 47q63 0 108 -46t45 -112zM1077 1300q0 -63 -47 -110t-110.5 -47t-109.5 47t-46 110.5t47 110.5t113 47q63 0 108 -46t45 -112z" />
<glyph unicode="&#xf7;" horiz-adv-x="1196" d="M1153 653l-47 -215h-1034l47 215h1034zM700 139q0 -72 -52 -122t-126 -50q-72 0 -124 50.5t-52 121.5q0 76 52.5 129.5t126 53.5t124.5 -53.5t51 -129.5zM874 956.5q0 -73.5 -52 -125t-126 -51.5q-72 0 -123 51.5t-51 122.5q0 74 51.5 127.5t122.5 53.5q74 0 126 -52.5 t52 -126z" />
<glyph unicode="&#xf8;" horiz-adv-x="1120" d="M1159 1141l-170 -207q66 -88 66 -223q0 -141 -38 -270.5t-112 -234t-193.5 -167t-269.5 -62.5q-115 0 -200 46l-164 -201l-101 86l166 198q-74 96 -73 248q0 301 169 508t435 207q129 0 215 -49l168 205zM731 827q-29 39 -98 39q-57 0 -107.5 -51t-83 -130t-52 -160 t-28.5 -154zM758 649l-363 -438q33 -35 94 -35q76 0 136.5 78t92.5 182t40 213z" />
<glyph unicode="&#xf9;" horiz-adv-x="1120" d="M1096 1073l-170 -801q-27 -133 22 -213l-237 -94q-43 63 -49 139q-141 -131 -304 -131q-121 0 -188.5 57.5t-67.5 155.5q0 72 21 166l141 672l283 51l-144 -674q-20 -92 -20 -141q0 -33 20.5 -56.5t45.5 -23.5q57 0 123.5 50.5t101.5 105.5l145 682zM940 1288l-94 -147 l-443 205l136 217z" />
<glyph unicode="&#xfa;" horiz-adv-x="1120" d="M1096 1073l-170 -801q-27 -133 22 -213l-237 -94q-43 63 -49 139q-141 -131 -304 -131q-121 0 -188.5 57.5t-67.5 155.5q0 72 21 166l141 672l283 51l-144 -674q-20 -92 -20 -141q0 -33 20.5 -56.5t45.5 -23.5q57 0 123.5 50.5t101.5 105.5l145 682zM1051 1346l-490 -211 l-82 153l473 273z" />
<glyph unicode="&#xfb;" horiz-adv-x="1120" d="M1096 1073l-170 -801q-27 -133 22 -213l-237 -94q-43 63 -49 139q-141 -131 -304 -131q-121 0 -188.5 57.5t-67.5 155.5q0 72 21 166l141 672l283 51l-144 -674q-20 -92 -20 -141q0 -33 20.5 -56.5t45.5 -23.5q57 0 123.5 50.5t101.5 105.5l145 682zM1079 1280l-110 -150 l-252 160l-309 -160l-74 150l428 276z" />
<glyph unicode="&#xfc;" horiz-adv-x="1120" d="M1096 1073l-170 -801q-27 -133 22 -213l-237 -94q-43 63 -49 139q-141 -131 -304 -131q-121 0 -188.5 57.5t-67.5 155.5q0 72 21 166l141 672l283 51l-144 -674q-20 -92 -20 -141q0 -33 20.5 -56.5t45.5 -23.5q57 0 123.5 50.5t101.5 105.5l145 682zM659 1300 q0 -63 -47 -110t-110.5 -47t-109.5 47t-46 110.5t47 110.5t113 47q63 0 108 -46t45 -112zM1092 1300q0 -63 -46.5 -110t-111.5 -47q-63 0 -109.5 47t-46.5 110.5t47 110.5t113 47q63 0 108.5 -46t45.5 -112z" />
<glyph unicode="&#xfd;" horiz-adv-x="1052" d="M1188 1049l-608 -1065q-152 -270 -275 -346q-121 -78 -274 -97l-56 185q123 27 185 65q59 37 94 78t88 131h-76q-8 162 -26 295l-95 737l283 33l51 -612l8 -217q72 182 142 313l264 500h295zM983 1346l-489 -211l-82 153l473 273z" />
<glyph unicode="&#xfe;" horiz-adv-x="1140" d="M1087 711q0 -197 -79.5 -369t-225.5 -274q-133 -94 -301 -95q-72 0 -166 15l-77 -369l-279 -70l340 1598q29 139 29 213q0 47 -9 80l285 88q8 -31 8 -88q0 -84 -20 -191l-35 -166q-20 -106 -39 -141q47 57 124 95t165 38q280 1 280 -364zM788 715q0 137 -81 137 q-61 0 -123 -46t-105 -118l-102 -467q45 -45 141 -45q43 0 93.5 36t78.5 87q39 70 68.5 207t29.5 209z" />
<glyph unicode="&#xff;" horiz-adv-x="1052" d="M1188 1049l-608 -1065q-152 -270 -275 -346q-121 -78 -274 -97l-56 185q123 27 185 65q59 37 94 78t88 131h-76q-8 162 -26 295l-95 737l283 33l51 -612l8 -217q72 182 142 313l264 500h295zM623 1300q0 -63 -47.5 -110t-111 -47t-109.5 47t-46 110.5t47 110.5t113 47 q63 0 108.5 -46t45.5 -112zM1055 1300q0 -63 -46 -110t-112 -47q-63 0 -109.5 47t-46.5 110.5t47.5 110.5t112.5 47q63 0 108.5 -46t45.5 -112z" />
<glyph unicode="&#x152;" horiz-adv-x="1708" d="M1860 1423l-88 -233h-486l-69 -330h405l-49 -233h-406l-80 -381h549l-53 -246h-835q-242 0 -346.5 25.5t-182.5 121.5q-102 127 -102 328t71.5 394.5t204.5 330.5q152 160 389 205q100 18 265 18h813zM1010 1159q-74 20 -150 21q-150 0 -242 -119q-70 -92 -115.5 -271.5 t-45.5 -314.5q0 -252 223 -252q31 0 64.5 5t52.5 10l18 6z" />
<glyph unicode="&#x153;" horiz-adv-x="1669" d="M1645 776q0 -123 -117 -233q-125 -119 -414 -119q-33 0 -63.5 3t-46.5 7l-15 4q-10 -68 -10 -94q0 -168 176 -168q135 0 291 111l70 -172q-207 -143 -426 -144q-213 0 -312 127q-147 -121 -342 -121q-176 0 -274.5 100.5t-98.5 276.5q0 301 169 508t436 207 q193 0 293 -113q145 115 327 115q357 0 357 -295zM754 711q0 86 -31 120.5t-96 34.5q-84 0 -150.5 -105.5t-94.5 -226t-28 -212.5q0 -145 129 -146q82 0 146.5 93t94.5 212t30 230zM1368 762q0 109 -111 108q-82 0 -138 -56t-85 -187q41 -10 78 -11q102 0 179 37t77 109z " />
<glyph unicode="&#x178;" horiz-adv-x="1134" d="M1372 1423l-633 -837l-125 -586h-299l125 586l-264 837h332l98 -389q27 -100 33 -182l115 178l268 393h350zM715 1638.5q0 -65.5 -46 -111.5t-112 -46q-63 0 -109.5 47t-46.5 110.5t47.5 110.5t112.5 47q63 0 108.5 -46t45.5 -111.5zM1147 1638.5q0 -65.5 -47 -111.5 t-110.5 -46t-109.5 47t-46 110.5t47 110.5t112 47q63 0 108.5 -46t45.5 -111.5z" />
<glyph unicode="&#x2c6;" horiz-adv-x="765" d="M918 1280l-111 -150l-252 160l-309 -160l-74 150l428 276z" />
<glyph unicode="&#x2dc;" horiz-adv-x="765" d="M940 1321q-72 -70 -135.5 -103.5t-147.5 -33.5q-55 0 -125.5 41t-123.5 41q-31 0 -58.5 -11.5t-46 -24.5t-49.5 -40l-68 153q72 70 131.5 103t135.5 33q55 0 130.5 -41t135.5 -41q70 0 153 71z" />
<glyph unicode="&#x2000;" horiz-adv-x="948" />
<glyph unicode="&#x2001;" horiz-adv-x="1896" />
<glyph unicode="&#x2002;" horiz-adv-x="948" />
<glyph unicode="&#x2003;" horiz-adv-x="1896" />
<glyph unicode="&#x2004;" horiz-adv-x="630" />
<glyph unicode="&#x2005;" horiz-adv-x="473" />
<glyph unicode="&#x2006;" horiz-adv-x="315" />
<glyph unicode="&#x2007;" horiz-adv-x="315" />
<glyph unicode="&#x2008;" horiz-adv-x="235" />
<glyph unicode="&#x2009;" horiz-adv-x="378" />
<glyph unicode="&#x200a;" horiz-adv-x="104" />
<glyph unicode="&#x2010;" horiz-adv-x="735" d="M653 674l-51 -225h-491l51 225h491z" />
<glyph unicode="&#x2011;" horiz-adv-x="735" d="M653 674l-51 -225h-491l51 225h491z" />
<glyph unicode="&#x2012;" horiz-adv-x="735" d="M653 674l-51 -225h-491l51 225h491z" />
<glyph unicode="&#x2013;" horiz-adv-x="1159" d="M1120 668l-45 -211h-997l45 211h997z" />
<glyph unicode="&#x2014;" horiz-adv-x="1622" d="M1583 668l-45 -211h-1460l45 211h1460z" />
<glyph unicode="&#x2018;" horiz-adv-x="552" d="M670 1352q-168 -61 -168 -119q0 -39 28 -55q70 -41 70 -154q0 -74 -52 -125t-126 -51q-92 0 -146.5 58.5t-54.5 162.5q0 127 117 246t254 153z" />
<glyph unicode="&#x2019;" horiz-adv-x="552" d="M623 1235q0 -127 -117 -246t-254 -153l-78 116q168 61 168 119q0 39 -29 55q-70 41 -69 154q0 74 52 125t126 51q92 0 146.5 -58.5t54.5 -162.5z" />
<glyph unicode="&#x201a;" horiz-adv-x="550" d="M371 98q0 -127 -117 -245.5t-254 -153.5l-78 117q168 61 168 118q0 39 -29 56q-70 41 -69 153q0 74 52 125t126 51q92 0 146.5 -58.5t54.5 -162.5z" />
<glyph unicode="&#x201c;" horiz-adv-x="1013" d="M1133 1352q-168 -61 -168 -119q0 -39 28 -55q70 -41 70 -154q0 -74 -52.5 -125t-125.5 -51q-92 0 -146.5 58.5t-54.5 162.5q0 127 117 246t254 153zM670 1352q-168 -61 -168 -119q0 -39 28 -55q70 -41 70 -154q0 -74 -52 -125t-126 -51q-92 0 -146.5 58.5t-54.5 162.5 q0 127 117 246t254 153z" />
<glyph unicode="&#x201d;" horiz-adv-x="1015" d="M1087 1235q0 -127 -116.5 -246t-253.5 -153l-78 116q168 61 168 119q0 39 -29 55q-70 41 -69 154q0 74 52 125t126 51q92 0 146 -58.5t54 -162.5zM625 1235q0 -127 -117 -246t-254 -153l-78 116q168 61 168 119q0 39 -29 55q-70 41 -69 154q0 74 52 125t126 51 q92 0 146.5 -58.5t54.5 -162.5z" />
<glyph unicode="&#x201e;" horiz-adv-x="1013" d="M836 98q0 -127 -117 -245.5t-254 -153.5l-78 117q168 61 168 118q0 39 -29 56q-70 41 -69 153q0 74 52 125t126 51q92 0 146.5 -58.5t54.5 -162.5zM373 98q0 -127 -117 -245.5t-254 -153.5l-78 117q168 61 168 118q0 39 -29 56q-70 41 -69 153q0 74 52 125t126 51 q92 0 146.5 -58.5t54.5 -162.5z" />
<glyph unicode="&#x2022;" horiz-adv-x="1005" d="M915 725q0 -152 -105 -257.5t-257 -105.5t-257.5 105.5t-105.5 257.5t105.5 257t257.5 105t257 -105t105 -257z" />
<glyph unicode="&#x2026;" horiz-adv-x="1677" d="M1442 150q0 -76 -53.5 -129.5t-126.5 -53.5q-76 0 -128.5 53.5t-52.5 129.5q0 74 52.5 126t126.5 52q76 0 129 -52t53 -126zM418 150q0 -76 -53.5 -129.5t-126.5 -53.5q-76 0 -128.5 53.5t-52.5 129.5q0 74 52.5 126t126.5 52q76 0 129 -52t53 -126zM930 150 q0 -76 -53.5 -129.5t-126.5 -53.5q-76 0 -128.5 53.5t-52.5 129.5q0 74 52.5 126t126.5 52q76 0 129 -52t53 -126z" />
<glyph unicode="&#x202f;" horiz-adv-x="378" />
<glyph unicode="&#x2039;" horiz-adv-x="677" d="M686 858l-317 -358l159 -344l-206 -125l-224 479l428 479z" />
<glyph unicode="&#x203a;" horiz-adv-x="677" d="M584 510l-428 -479l-164 131l317 360l-157 348l208 119z" />
<glyph unicode="&#x205f;" horiz-adv-x="473" />
<glyph unicode="&#x20ac;" horiz-adv-x="1306" d="M1411 1374l-117 -235q-98 88 -227 88q-113 0 -194.5 -60.5t-124.5 -165.5h399l-43 -200h-432q-8 -31 -33 -158h432l-43 -201h-407q0 -117 67.5 -181t188.5 -64q141 0 268 77l22 -221q-162 -78 -362 -78q-223 0 -355.5 127t-138.5 340h-239l43 201h211q20 106 36 158h-215 l43 200h250q96 227 258 340t414 113q178 0 299 -80z" />
<glyph unicode="&#x2122;" horiz-adv-x="1968" d="M1927 1450l-102 -887h-209l63 473q0 4 1 10.5t1 8.5l-8 -17l-241 -475h-183l-35 465q0 14 -2 23l-6 -31l-127 -457h-219l270 887h259l30 -442q2 -20 2 -52l31 62l213 432h262zM926 1450l-74 -174h-211l-143 -713h-224l148 713h-219l35 174h688z" />
<glyph unicode="&#xe000;" horiz-adv-x="1075" d="M0 1075h1075v-1075h-1075v1075z" />
<glyph unicode="&#xfb01;" horiz-adv-x="1218" d="M1192 1049l-221 -1049h-275l183 860h-357l-168 -860q-27 -137 -100.5 -259t-161.5 -200l-168 152q45 45 93.5 136t64.5 171l172 860h-102l41 189h100q2 39 24 143q68 326 404 326q150 0 225 -52l-119 -166q-33 16 -102 17q-115 0 -141 -119l-31 -149h639zM1288 1337.5 q0 -71.5 -50 -121t-119.5 -49.5t-119 50.5t-49.5 120t50.5 119.5t121.5 50q70 0 118 -49t48 -120.5z" />
<glyph unicode="&#xfb02;" horiz-adv-x="1257" d="M944 1464l-121 -168q-39 20 -98 21q-115 0 -141 -119l-31 -149h256l-111 -189h-176l-168 -860q-27 -137 -100.5 -259t-161.5 -200l-168 152q45 45 93.5 136t64.5 171l172 860h-102l41 189h100q2 39 24 143q68 326 404 326q131 -1 223 -54zM1274 1516q0 -76 -51 -314 l-166 -776q-35 -160 -35 -203q0 -59 53 -59q20 0 31 4l12 -164q-76 -29 -170 -29q-106 0 -161.5 51.5t-55.5 137.5q0 49 31 190l166 783q51 246 51 315z" />
<glyph unicode="&#xfb03;" horiz-adv-x="1835" d="M1808 1049l-221 -1049h-270l182 860h-356l-168 -860q-27 -137 -100.5 -259t-161.5 -200l-168 152q45 45 93 136t64 171l172 860h-352l-168 -860q-27 -137 -100.5 -259t-161.5 -200l-168 152q45 45 93.5 136t64.5 171l172 860h-102l41 189h100q2 39 24 143q68 326 404 326 q135 0 233 -66l-118 -166q-57 31 -111 31q-115 0 -141 -119l-31 -149h360q2 39 25 143q68 326 403 326q129 0 222 -54l-121 -168q-41 20 -96 21q-115 0 -142 -119l-30 -149h634zM1905 1337.5q0 -71.5 -49.5 -121t-120.5 -49.5q-70 0 -119 50.5t-49 120t50 119.5t122 50 q70 0 118 -49t48 -120.5z" />
<glyph unicode="&#xfb04;" horiz-adv-x="1865" d="M1548 1464l-121 -168q-43 20 -90 21q-115 0 -141 -119l-31 -149h256l-108 -189h-178l-168 -860q-27 -137 -100.5 -259t-161.5 -200l-168 152q45 45 93 136t64 171l172 860h-344l-168 -860q-27 -137 -100.5 -259t-161.5 -200l-168 152q45 45 93.5 136t64.5 171l172 860 h-102l41 189h100q2 39 24 143q68 326 404 326q135 0 233 -66l-118 -166q-57 31 -111 31q-115 0 -141 -119l-31 -149h352q2 39 25 143q68 326 403 326q123 -1 215 -54zM1882 1516q6 -59 -49 -314l-166 -776q-35 -160 -35 -203q0 -59 54 -59q20 0 30 4l13 -164 q-76 -29 -170 -29q-106 0 -162 51.5t-56 137.5q0 49 31 190l166 783q49 236 49 315z" />
</font>
</defs>
</svg>
